<svg width="139" height="183" viewBox="0 0 139 183" fill="none" xmlns="http://www.w3.org/2000/svg">
<g filter="url(#filter0_d_1_85)">
<mask id="path-1-inside-1_1_85" fill="white">
<rect x="1" width="131" height="175" rx="4"/>
</mask>
<rect x="1" width="131" height="175" rx="4" stroke="black" stroke-width="10" stroke-linejoin="round" shape-rendering="crispEdges" mask="url(#path-1-inside-1_1_85)"/>
</g>
<path d="M8.5 47H6V52H8.5V49.5V47ZM52.5 52C53.8807 52 55 50.8807 55 49.5C55 48.1193 53.8807 47 52.5 47V49.5V52ZM8.5 49.5V52H52.5V49.5V47H8.5V49.5Z" fill="black"/>
<line x1="53.6058" y1="49.5168" x2="76.5168" y2="33.3942" stroke="black" stroke-width="5" stroke-linecap="round"/>
<circle cx="53.5" cy="49.5" r="2.5" fill="black"/>
<circle cx="77.5" cy="32.5" r="2.5" fill="black"/>
<path d="M78.5 30C77.1193 30 76 31.1193 76 32.5C76 33.8807 77.1193 35 78.5 35V32.5V30ZM125.5 35H128V30H125.5V32.5V35ZM78.5 32.5V35H125.5V32.5V30L78.5 30V32.5Z" fill="black"/>
<circle cx="29" cy="26" r="10.5" stroke="black" stroke-width="5"/>
<circle cx="62.5" cy="14.5" r="2.5" fill="black"/>
<circle cx="75.5" cy="14.5" r="2.5" fill="black"/>
<circle cx="89.5" cy="14.5" r="2.5" fill="black"/>
<path d="M27.1497 103.976C28.1973 105.122 28.1973 106.878 27.1497 108.024L19.9643 115.884C18.1169 117.905 14.75 116.598 14.75 113.86L14.75 98.1397C14.75 95.4016 18.1169 94.0946 19.9642 96.1155L27.1497 103.976Z" fill="black"/>
<line x1="112.5" y1="33" x2="112.5" y2="175" stroke="black" stroke-width="5"/>
<line x1="115" y1="145.5" x2="128" y2="145.5" stroke="black" stroke-width="5"/>
<line x1="114" y1="58.5" x2="128" y2="58.5" stroke="black" stroke-width="5"/>
<line x1="43.5" y1="154.5" x2="89.5" y2="154.5" stroke="black" stroke-width="5" stroke-linecap="round"/>
<defs>
<filter id="filter0_d_1_85" x="0" y="0" width="139" height="183" filterUnits="userSpaceOnUse" color-interpolation-filters="sRGB">
<feFlood flood-opacity="0" result="BackgroundImageFix"/>
<feColorMatrix in="SourceAlpha" type="matrix" values="0 0 0 0 0 0 0 0 0 0 0 0 0 0 0 0 0 0 127 0" result="hardAlpha"/>
<feOffset dx="3" dy="4"/>
<feGaussianBlur stdDeviation="2"/>
<feComposite in2="hardAlpha" operator="out"/>
<feColorMatrix type="matrix" values="0 0 0 0 0 0 0 0 0 0 0 0 0 0 0 0 0 0 0.25 0"/>
<feBlend mode="normal" in2="BackgroundImageFix" result="effect1_dropShadow_1_85"/>
<feBlend mode="normal" in="SourceGraphic" in2="effect1_dropShadow_1_85" result="shape"/>
</filter>
</defs>
</svg>
